<?xml version="1.0" encoding="UTF-8" standalone="no"?>
<svg
   xmlns:dc="http://purl.org/dc/elements/1.1/"
   xmlns:cc="http://creativecommons.org/ns#"
   xmlns:rdf="http://www.w3.org/1999/02/22-rdf-syntax-ns#"
   xmlns:svg="http://www.w3.org/2000/svg"
   xmlns="http://www.w3.org/2000/svg"
   xmlns:sodipodi="http://sodipodi.sourceforge.net/DTD/sodipodi-0.dtd"
   xmlns:inkscape="http://www.inkscape.org/namespaces/inkscape"
   width="700"
   height="700"
   viewBox="0 0 700 700"
   version="1.1"
   id="svg14"
   sodipodi:docname="bmw-logo.svg"
   inkscape:version="0.92.4 (5da689c313, 2019-01-14)">
  <metadata
     id="metadata20">
    <rdf:RDF>
      <cc:Work
         rdf:about="">
        <dc:format>image/svg+xml</dc:format>
        <dc:type
           rdf:resource="http://purl.org/dc/dcmitype/StillImage" />
        <dc:title></dc:title>
      </cc:Work>
    </rdf:RDF>
  </metadata>
  <defs
     id="defs18" />
  <sodipodi:namedview
     pagecolor="#ffffff"
     bordercolor="#666666"
     borderopacity="1"
     objecttolerance="10"
     gridtolerance="10"
     guidetolerance="10"
     inkscape:pageopacity="0"
     inkscape:pageshadow="2"
     inkscape:window-width="1920"
     inkscape:window-height="1017"
     id="namedview16"
     showgrid="false"
     inkscape:zoom="0.81944445"
     inkscape:cx="56.311489"
     inkscape:cy="323.1953"
     inkscape:window-x="-8"
     inkscape:window-y="-8"
     inkscape:window-maximized="1"
     inkscape:current-layer="svg14" />
  <g
     id="g12"
     style="fill:none"
     transform="matrix(6.8256317,0,0,6.8256317,100.05219,104.88133)">
    <path
       d="M 36.194,0 C 16.205,0 0,16.079 0,35.911 0,55.744 16.205,71.823 36.194,71.823 56.183,71.823 72.388,55.744 72.388,35.911 72.388,16.08 56.183,0 36.194,0 Z m 33.84,35.911 c 0,18.543 -15.15,33.576 -33.84,33.576 -18.69,0 -33.84,-15.033 -33.84,-33.576 0,-18.542 15.151,-33.576 33.84,-33.576 18.689,0 33.84,15.034 33.84,33.576 z"
       transform="translate(0.425)"
       id="path2"
       inkscape:connector-curvature="0"
       style="fill:#000000" />
    <path
       d="m 36.194,14.615 v 1.168 c 11.185,0 20.287,9.028 20.287,20.128 h 1.177 c 0,-11.76 -9.61,-21.296 -21.464,-21.296 m 0,41.425 C 25.009,56.04 15.907,47.011 15.907,35.911 H 14.73 c 0,11.761 9.61,21.296 21.464,21.296"
       transform="translate(0.425)"
       id="path4"
       inkscape:connector-curvature="0"
       style="fill:#000000" />
    <g
       id="g8"
       style="fill:#000000">
      <path
         d="m 43.734,16.452 c 0.491,0.524 1.2,1.369 1.598,1.882 l 7.329,-4.616 c -0.366,-0.475 -0.95,-1.197 -1.385,-1.706 l -4.642,3.045 -0.317,0.27 0.236,-0.342 2.05,-4.058 -1.45,-1.438 -4.092,2.033 -0.344,0.234 0.274,-0.314 3.07,-4.603 c -0.54,-0.456 -1.059,-0.874 -1.72,-1.38 l -4.653,7.265 c 0.59,0.45 1.367,1.11 1.862,1.56 l 4.38,-2.255 0.28,-0.205 -0.206,0.279 -2.27,4.35 z m -16.631,-9.208 2.003,-4.45 0.127,-0.395 -0.036,0.411 0.21,5.948 c 0.703,0.066 1.429,0.163 2.144,0.281 L 31.225,0.23 C 30.225,0.12 29.229,0.042 28.233,0 L 26.26,4.858 26.19,5.219 26.12,4.859 24.15,0 c -0.997,0.042 -1.993,0.12 -2.993,0.23 l -0.325,8.81 c 0.715,-0.12 1.44,-0.214 2.143,-0.282 l 0.21,-5.948 -0.036,-0.411 0.128,0.394 2.002,4.451 z m -16.197,7.021 c 1.158,-1.21 1.813,-2.608 0.656,-3.942 C 10.932,9.599 9.874,9.44 8.997,9.797 L 8.91,9.831 8.938,9.755 C 9.068,9.411 9.151,8.313 8.208,7.555 7.748,7.185 7.172,7.048 6.588,7.107 5.501,7.217 4.665,7.954 2.388,10.473 1.7,11.233 0.7,12.433 0.1,13.209 l 6.254,5.887 c 2.073,-2.276 2.918,-3.123 4.552,-4.831 z m -8.16,-1.44 C 4.004,11.296 5.343,9.909 5.95,9.36 6.142,9.187 6.35,9.014 6.603,8.946 7.014,8.834 7.438,9.124 7.533,9.542 7.629,9.962 7.363,10.361 7.067,10.69 6.401,11.436 3.958,13.971 3.958,13.971 L 2.745,12.825 Z m 2.449,2.306 c 0,0 2.379,-2.496 3.156,-3.294 0.308,-0.317 0.506,-0.51 0.719,-0.613 0.274,-0.133 0.574,-0.16 0.843,0.017 0.263,0.176 0.385,0.477 0.319,0.777 -0.079,0.357 -0.373,0.697 -0.615,0.957 l -3.154,3.349 z"
         transform="translate(10.427,4.223)"
         id="path6"
         inkscape:connector-curvature="0" />
    </g>
    <path
       d="M 36.194,14.615 V 35.911 H 14.73 c 0,-11.769 9.602,-21.296 21.464,-21.296 z m 21.464,21.296 c 0,11.77 -9.602,21.296 -21.464,21.296 V 35.911 Z"
       transform="translate(0.425)"
       id="path10"
       inkscape:connector-curvature="0"
       style="fill:#0066b1" />
  </g>
</svg>
